OpenSim_Sub08_EMGStiffKnee_GRF.mot
version=1
nRows=23
nColumns=19
inDegrees=no
endheader
time	lFx	lFy	lFz	lCOPx	lCOPy	lCOPz	rFx	rFy	rFz	rCOPx	rCOPy	rCOPz	lMx	lMy	lMz	rMx	rMy	rMz
47.25000000	13.00689000	97.08005442	-1.52022895	0.84476951	0	-0.58202206	19.33976823	519.71421407	-44.29782629	0.64008956	0	-0.39933146	0	0.67249836	0	0	3.64264749	-0.00000000
47.26000000	5.53662807	143.20844227	0.85761960	0.91565763	0	-0.63603959	20.27275377	518.05807344	-44.01785969	0.63709578	0	-0.39825573	0	1.33481218	0	0	3.75673870	0
47.27000000	-5.80727829	196.51298445	4.28254768	0.92661726	0	-0.64654060	21.71462330	515.33688456	-43.67985082	0.63402168	0	-0.39705272	0	2.12882942	0	0	3.88429148	0
47.28000000	-18.59933854	254.85333296	8.62972243	0.91680561	0	-0.64143497	23.51344177	511.36375095	-43.39025912	0.63092804	0	-0.39571042	0	2.89437180	0	0	3.93965952	-0.00000000
47.29000000	-30.73359723	310.35859900	14.05642799	0.90532836	0	-0.63516526	25.60931656	506.10694079	-43.43761653	0.62735336	0	-0.39429165	0	3.29904283	0	0	3.93238101	0
47.30000000	-40.65557586	353.37952196	20.77859295	0.89754339	0	-0.63202899	27.89988316	500.05200358	-43.96037606	0.62327346	0	-0.39287652	0	2.96546097	0	0	3.89733889	0
47.31000000	-47.58070482	379.30819321	28.36704183	0.89264134	0	-0.63184358	30.40279456	493.96219208	-44.77794902	0.61878115	0	-0.39159963	0	1.80889905	0	0	3.84486247	0
47.32000000	-51.15331647	390.99768259	35.57412527	0.88806249	0	-0.63327812	33.24198328	488.27607395	-45.39286157	0.61383383	0	-0.39060022	0	0.23764192	0	0	3.81052104	-0.00000000
47.33000000	-52.41259563	396.04154489	41.72118046	0.88323495	0	-0.63519377	36.47063628	482.37086532	-45.29341490	0.60830460	0	-0.38986213	0	-1.35363961	0	0	3.81339277	-0.00000000
47.34000000	-52.95717176	401.73499009	46.81092263	0.87861507	0	-0.63693537	39.97553503	474.93841408	-44.40466884	0.60237792	0	-0.38931525	0	-2.76086246	0	0	3.82594421	0.00000000
47.35000000	-53.33307034	410.78623994	50.21392591	0.87472909	0	-0.63822741	43.48038101	464.79531393	-42.85864922	0.59645350	0	-0.38891958	0	-3.65089607	0	0	3.84531802	0
47.36000000	-52.90829318	421.60943788	50.70818159	0.87156610	0	-0.63895800	46.73790875	451.08879433	-40.52458402	0.59067975	0	-0.38858738	0	-3.60479701	0	0	3.78060321	0
47.37000000	-51.71334884	432.75635104	48.89908245	0.86868012	0	-0.63918896	49.57837567	433.36966220	-37.56512005	0.58492615	0	-0.38819972	0	-2.80984038	0	0	3.62501441	0
47.38000000	-49.91959102	444.20515465	46.23222428	0.86553505	0	-0.63915925	52.05937671	411.42237421	-34.34765427	0.57881298	0	-0.38759660	0	-1.64502579	0	0	3.43356494	-0.00000000
47.39000000	-47.73061554	456.17812135	43.85805867	0.86182985	0	-0.63910352	54.08465477	385.30717817	-31.03554775	0.57244324	0	-0.38666421	0	-0.48547737	0	0	3.14411235	-0.00000000
47.40000000	-45.35069235	467.86782670	42.61172050	0.85756723	0	-0.63919162	55.43259562	355.37950017	-28.04448778	0.56616345	0	-0.38546713	0	0.32508788	0	0	2.74080848	0
47.41000000	-42.82495437	477.28988694	42.67456452	0.85306023	0	-0.63949073	55.76126579	322.37390236	-25.65428791	0.55992331	0	-0.38407431	0	0.67115885	0	0	2.27344674	0
47.42000000	-40.29364748	482.82250738	43.59479175	0.84887012	0	-0.64001480	54.68265320	287.29985798	-23.52223909	0.55309281	0	-0.38253898	0	0.61307255	0	0	1.77216418	0
47.43000000	-37.82324653	484.32289527	44.82760971	0.84500797	0	-0.64072233	51.85472341	250.98187254	-21.30059596	0.54574937	0	-0.38125082	0	0.30130992	0	0	1.30538555	0.00000000
47.44000000	-35.35126855	483.11763445	46.05326552	0.84122738	0	-0.64153529	46.91944724	214.20756400	-18.98129981	0.53894947	0	-0.38115559	0	-0.10633511	0	0	0.92942618	0.00000000
47.45000000	-32.94857009	481.23372769	47.10864173	0.83747311	0	-0.64238522	39.61257236	178.02318137	-16.72685323	0.53436618	0	-0.38343427	0	-0.50710460	0	0	0.65456756	0
47.46000000	-30.97123380	480.31242678	47.88703085	0.83398842	0	-0.64318616	30.01449923	143.52358199	-14.75279124	0.53354028	0	-0.38841943	0	-0.84463297	0	0	0.47072583	-0.00000000
47.47000000	-29.65021753	481.15680618	48.17522405	0.83081450	0	-0.64385086	19.04478790	111.44506938	-13.09154835	0.53433985	0	-0.39300897	0	-1.00848945	0	0	0.32201148	0
